{"title":"Avengers.Age.of.Ultron.2015.Bluray.x264.AAC5.1.TomX","uid":12389850,"size":3316792686,"categoryP":"video","categoryS":"hd___movies","magnet":"?xt=urn:btih:7741f7c744cf8c29d94dacd6b2d1d6812b6810ce&amp;dn=Avengers.Age.of.Ultron.2015.Bluray.x264.AAC5.1.TomX&amp;tr=udp%3A%2F%2Ftracker.openbittorrent.com%3A80&amp;tr=udp%3A%2F%2Fopen.demonii.com%3A1337&amp;tr=udp%3A%2F%2Ftracker.coppersurfer.tk%3A6969&amp;tr=udp%3A%2F%2Fexodus.desync.com%3A6969","seeders":1,"leechers":0,"uploader":"torrenttomten","files":2,"time":1441878086,"description":"===================================================================================\n                                Tomten presents\n \n                          Avengers: Age of Ultron (2015) \n                   \n                             1080p - 5.1 and 2 ch\n      \nPlot: When Tony Stark and Bruce Banner try to jump-start a dormant peacekeeping \nprogram called Ultron, things go horribly wrong and it's up to Earth's \nMightiest Heroes to stop the villainous Ultron from enacting his terrible plans.\n \n===================================================================================\n\nFormat                      : Matroska\nFile size                   : 3.09 GiB\nDuration                    : 2h 21mn\nOverall bit rate            : 3 130 Kbps\n\nVideo\nFormat                      : AVC (x264)\nFormat profile              : &lt;a class=&quot;__cf_email__&quot; href=&quot;/cdn-cgi/l/email-protection&quot; data-cfemail=&quot;82caebe5eac2ceb6acb3&quot;&gt;[email&amp;#160;protected]&lt;/a&gt;&lt;script data-cfhash='f9e31' type=&quot;text/javascript&quot;&gt;\n/* &lt;![CDATA[ */!function(){try{var t=&quot;currentScript&quot;in document?document.currentScript:function(){for(var t=document.getElementsByTagName(&quot;script&quot;),e=t.length;e--;)if(t[e].getAttribute(&quot;data-cfhash&quot;))return t[e]}();if(t&amp;&amp;t.previousSibling){var e,r,n,i,c=t.previousSibling,a=c.getAttribute(&quot;data-cfemail&quot;);if(a){for(e=&quot;&quot;,r=parseInt(a.substr(0,2),16),n=2;a.length-n;n+=2)i=parseInt(a.substr(n,2),16)^r,e+=String.fromCharCode(i);e=document.createTextNode(e),c.parentNode.replaceChild(e,c)}t.parentNode.removeChild(t);}}catch(u){}}()/* ]]&gt; */&lt;/script&gt;\nBit rate                    : 2 496 Kbps\nWidth                       : 1 920 pixels\nHeight                      : 800 pixels\nDisplay aspect ratio        : 2.40:1\nFrame rate                  : 23.976 fps\nEncoding settings           : cabac=1 / ref=4 / me=umh / subme=10\n\nAudio #1\nFormat                      : AAC\nOverall bit rate mode       : Variable\nOverall bit rate            : 396 Kbps\nChannel(s)                  : 6 channels\nChannel positions           : Front: L C R, Side: L R, LFE\nSampling rate               : 48.0 KHz\nTitle                       : Surround 5.1\nWriting application         : qaac 2.52, CVBR 384kbps\nStream size                 : 397 MiB\n\n\nAudio 2#\nFormat                      : AAC\nChannel(s)                  : 2 channels\nChannel positions           : Front: L R\nBit rate mode               : Variable\nBit rate                    : 192 Kbps\nSampling rate               : 48.0 KHz\nTitle                       : Dolby Pro Logic II\nWriting application         : qaac 2.52, AAC-LC Encoder, TVBR q100\nStream size                 : 182 MiB\n\n\n\nSubtitles: English, Portuguese, Spanish, Danish, Finnish, Norwegian, Swedish","torrent":{"xt":"urn:btih:7741f7c744cf8c29d94dacd6b2d1d6812b6810ce","amp;dn":"Avengers.Age.of.Ultron.2015.Bluray.x264.AAC5.1.TomX","amp;tr":["udp%3A%2F%2Ftracker.openbittorrent.com%3A80","udp%3A%2F%2Fopen.demonii.com%3A1337","udp%3A%2F%2Ftracker.coppersurfer.tk%3A6969","udp%3A%2F%2Fexodus.desync.com%3A6969"],"infoHash":"7741f7c744cf8c29d94dacd6b2d1d6812b6810ce","infoHashBuffer":{"type":"Buffer","data":[119,65,247,199,68,207,140,41,217,77,172,214,178,209,214,129,43,104,16,206]},"announce":[],"urlList":[]}}